<mxfile host="app.diagrams.net" modified="2024-03-23T07:45:52.998Z" agent="Mozilla/5.0 (X11; Linux x86_64) AppleWebKit/537.36 (KHTML, like Gecko) Chrome/122.0.0.0 Safari/537.36" etag="USTVqgwTWoWpNe3K7QhW" version="24.0.8" type="device">
  <diagram name="Страница — 1" id="e0x9FmHPlvN0MJsoGaEV">
    <mxGraphModel dx="954" dy="574" grid="1" gridSize="10" guides="1" tooltips="1" connect="1" arrows="1" fold="1" page="1" pageScale="1" pageWidth="827" pageHeight="1169" math="0" shadow="0">
      <root>
        <mxCell id="0" />
        <mxCell id="1" parent="0" />
        <mxCell id="Kdy6j-NITkerrrM835-V-9" value="" style="edgeStyle=orthogonalEdgeStyle;rounded=0;orthogonalLoop=1;jettySize=auto;html=1;" edge="1" parent="1" source="Kdy6j-NITkerrrM835-V-1" target="Kdy6j-NITkerrrM835-V-4">
          <mxGeometry relative="1" as="geometry" />
        </mxCell>
        <mxCell id="Kdy6j-NITkerrrM835-V-1" value="Начало" style="rounded=1;whiteSpace=wrap;html=1;arcSize=50;" vertex="1" parent="1">
          <mxGeometry x="315" y="20" width="120" height="50" as="geometry" />
        </mxCell>
        <mxCell id="Kdy6j-NITkerrrM835-V-3" value="Ввод M, A, K" style="shape=parallelogram;perimeter=parallelogramPerimeter;whiteSpace=wrap;html=1;fixedSize=1;" vertex="1" parent="1">
          <mxGeometry x="315" y="100" width="120" height="60" as="geometry" />
        </mxCell>
        <mxCell id="Kdy6j-NITkerrrM835-V-10" style="edgeStyle=orthogonalEdgeStyle;rounded=0;orthogonalLoop=1;jettySize=auto;html=1;exitX=1;exitY=0.5;exitDx=0;exitDy=0;entryX=0.5;entryY=0;entryDx=0;entryDy=0;" edge="1" parent="1" source="Kdy6j-NITkerrrM835-V-4" target="Kdy6j-NITkerrrM835-V-6">
          <mxGeometry relative="1" as="geometry" />
        </mxCell>
        <mxCell id="Kdy6j-NITkerrrM835-V-11" style="edgeStyle=orthogonalEdgeStyle;rounded=0;orthogonalLoop=1;jettySize=auto;html=1;entryX=0.5;entryY=0;entryDx=0;entryDy=0;exitX=0;exitY=0.5;exitDx=0;exitDy=0;" edge="1" parent="1" source="Kdy6j-NITkerrrM835-V-4" target="Kdy6j-NITkerrrM835-V-5">
          <mxGeometry relative="1" as="geometry" />
        </mxCell>
        <mxCell id="Kdy6j-NITkerrrM835-V-4" value="&lt;font style=&quot;font-size: 14px;&quot;&gt;m &amp;gt; a&lt;/font&gt;" style="rhombus;whiteSpace=wrap;html=1;" vertex="1" parent="1">
          <mxGeometry x="285" y="180" width="180" height="80" as="geometry" />
        </mxCell>
        <mxCell id="Kdy6j-NITkerrrM835-V-5" value="f = m-5" style="rounded=0;whiteSpace=wrap;html=1;" vertex="1" parent="1">
          <mxGeometry x="195" y="280" width="90" height="40" as="geometry" />
        </mxCell>
        <mxCell id="Kdy6j-NITkerrrM835-V-6" value="f = a * m/k" style="rounded=0;whiteSpace=wrap;html=1;" vertex="1" parent="1">
          <mxGeometry x="460" y="280" width="90" height="40" as="geometry" />
        </mxCell>
        <mxCell id="Kdy6j-NITkerrrM835-V-17" value="" style="edgeStyle=orthogonalEdgeStyle;rounded=0;orthogonalLoop=1;jettySize=auto;html=1;" edge="1" parent="1" source="Kdy6j-NITkerrrM835-V-7" target="Kdy6j-NITkerrrM835-V-8">
          <mxGeometry relative="1" as="geometry" />
        </mxCell>
        <mxCell id="Kdy6j-NITkerrrM835-V-7" value="Вывод f" style="shape=parallelogram;perimeter=parallelogramPerimeter;whiteSpace=wrap;html=1;fixedSize=1;" vertex="1" parent="1">
          <mxGeometry x="315" y="390" width="120" height="60" as="geometry" />
        </mxCell>
        <mxCell id="Kdy6j-NITkerrrM835-V-8" value="Конец" style="rounded=1;whiteSpace=wrap;html=1;arcSize=50;" vertex="1" parent="1">
          <mxGeometry x="320" y="490" width="110" height="50" as="geometry" />
        </mxCell>
        <mxCell id="Kdy6j-NITkerrrM835-V-14" value="" style="endArrow=none;html=1;rounded=0;exitX=0.5;exitY=1;exitDx=0;exitDy=0;" edge="1" parent="1" source="Kdy6j-NITkerrrM835-V-5">
          <mxGeometry width="50" height="50" relative="1" as="geometry">
            <mxPoint x="400" y="560" as="sourcePoint" />
            <mxPoint x="510" y="360" as="targetPoint" />
            <Array as="points">
              <mxPoint x="240" y="360" />
            </Array>
          </mxGeometry>
        </mxCell>
        <mxCell id="Kdy6j-NITkerrrM835-V-15" value="" style="endArrow=none;html=1;rounded=0;entryX=0.5;entryY=1;entryDx=0;entryDy=0;" edge="1" parent="1" target="Kdy6j-NITkerrrM835-V-6">
          <mxGeometry width="50" height="50" relative="1" as="geometry">
            <mxPoint x="505" y="360" as="sourcePoint" />
            <mxPoint x="450" y="350" as="targetPoint" />
          </mxGeometry>
        </mxCell>
        <mxCell id="Kdy6j-NITkerrrM835-V-16" value="" style="endArrow=classic;html=1;rounded=0;entryX=0.5;entryY=0;entryDx=0;entryDy=0;" edge="1" parent="1" target="Kdy6j-NITkerrrM835-V-7">
          <mxGeometry width="50" height="50" relative="1" as="geometry">
            <mxPoint x="375" y="360" as="sourcePoint" />
            <mxPoint x="450" y="260" as="targetPoint" />
          </mxGeometry>
        </mxCell>
        <mxCell id="Kdy6j-NITkerrrM835-V-18" value="ДА" style="text;strokeColor=none;fillColor=none;align=left;verticalAlign=middle;spacingLeft=4;spacingRight=4;overflow=hidden;points=[[0,0.5],[1,0.5]];portConstraint=eastwest;rotatable=0;whiteSpace=wrap;html=1;" vertex="1" parent="1">
          <mxGeometry x="230" y="190" width="80" height="30" as="geometry" />
        </mxCell>
        <mxCell id="Kdy6j-NITkerrrM835-V-19" value="НЕТ" style="text;strokeColor=none;fillColor=none;align=left;verticalAlign=middle;spacingLeft=4;spacingRight=4;overflow=hidden;points=[[0,0.5],[1,0.5]];portConstraint=eastwest;rotatable=0;whiteSpace=wrap;html=1;" vertex="1" parent="1">
          <mxGeometry x="470" y="190" width="80" height="30" as="geometry" />
        </mxCell>
      </root>
    </mxGraphModel>
  </diagram>
</mxfile>
